<?xml version="1.0" encoding="utf-8"?>
<!-- Generator: Adobe Illustrator 16.0.0, SVG Export Plug-In . SVG Version: 6.00 Build 0)  -->
<!DOCTYPE svg PUBLIC "-//W3C//DTD SVG 1.1//EN" "http://www.w3.org/Graphics/SVG/1.1/DTD/svg11.dtd">
<svg version="1.1" id="Layer_1" focusable="false" xmlns="http://www.w3.org/2000/svg" xmlns:xlink="http://www.w3.org/1999/xlink"
	 x="0px" y="0px" width="612px" height="792px" viewBox="0 0 612 792" enable-background="new 0 0 612 792" xml:space="preserve">
<path fill="#0065FC" d="M194.625,111.375C194.625,49.863,244.488,0,306,0s111.375,49.863,111.375,111.375
	c0,61.51-49.863,111.375-111.375,111.375S194.625,172.885,194.625,111.375z M588.501,113.499c-19.329-19.332-50.673-19.332-70.002,0
	L384.496,247.5H227.502L93.501,113.499c-19.33-19.332-50.672-19.332-70.002,0c-19.332,19.331-19.332,50.672,0,70.004
	l146.376,146.375V742.5c0,27.338,22.162,49.5,49.5,49.5h24.75c27.338,0,49.5-22.162,49.5-49.5V569.25h24.75V742.5
	c0,27.338,22.162,49.5,49.5,49.5h24.75c27.338,0,49.5-22.162,49.5-49.5V329.877l146.376-146.376
	C607.832,164.17,607.832,132.83,588.501,113.499z"/>
</svg>
