<?xml version="1.0" encoding="utf-8"?>
<!-- Generator: Adobe Illustrator 16.0.0, SVG Export Plug-In . SVG Version: 6.00 Build 0)  -->
<!DOCTYPE svg PUBLIC "-//W3C//DTD SVG 1.1//EN" "http://www.w3.org/Graphics/SVG/1.1/DTD/svg11.dtd">
<svg version="1.1" id="Layer_1" focusable="false" xmlns="http://www.w3.org/2000/svg" xmlns:xlink="http://www.w3.org/1999/xlink"
	 x="0px" y="0px" width="16px" height="16px" viewBox="0 0 16 16" enable-background="new 0 0 16 16" xml:space="preserve">
<path fill="#0065FC" d="M8.279,7.111l4.165,1.487v6.067c0,0.246-0.198,0.445-0.444,0.445h-1.777c-0.246,0-0.445-0.199-0.445-0.445
	v-3.11H5.333v3.11c0,0.246-0.199,0.445-0.445,0.445H3.111c-0.246,0-0.445-0.199-0.445-0.445V8.725
	C1.634,8.356,0.889,7.379,0.889,6.222c0-0.491,0.398-0.889,0.889-0.889s0.889,0.398,0.889,0.889C2.667,6.713,3.065,7.11,3.556,7.111
	H8.279z M15.111,4v0.889c0,0.982-0.796,1.778-1.777,1.778h-0.89v0.988l-3.556-1.27V2.222c0-0.396,0.479-0.594,0.759-0.314
	l0.758,0.758h1.489c0.304,0,0.66,0.22,0.795,0.492l0.199,0.397h1.777C14.912,3.556,15.111,3.754,15.111,4z M12,4
	c0-0.246-0.199-0.444-0.444-0.444S11.111,3.754,11.111,4s0.199,0.444,0.444,0.444S12,4.246,12,4z"/>
</svg>
