<?xml version="1.0" encoding="utf-8"?>
<!-- Generator: Adobe Illustrator 16.0.0, SVG Export Plug-In . SVG Version: 6.00 Build 0)  -->
<!DOCTYPE svg PUBLIC "-//W3C//DTD SVG 1.1//EN" "http://www.w3.org/Graphics/SVG/1.1/DTD/svg11.dtd">
<svg version="1.1" id="Layer_1" focusable="false" xmlns="http://www.w3.org/2000/svg" xmlns:xlink="http://www.w3.org/1999/xlink"
	 x="0px" y="0px" width="612px" height="792px" viewBox="0 0 612 792" enable-background="new 0 0 612 792" xml:space="preserve">
<path fill="#0065FC" d="M188.438,656.229h30.938V432.771h-30.938c-17.087,0-30.938-13.851-30.938-30.938v-73.896
	c0-17.087,13.851-30.938,30.938-30.938h173.25c17.087,0,30.938,13.851,30.938,30.938v328.292h30.938
	c17.087,0,30.938,13.851,30.938,30.938v73.896c0,17.087-13.851,30.938-30.938,30.938H188.438c-17.087,0-30.938-13.851-30.938-30.938
	v-73.896C157.5,670.08,171.351,656.229,188.438,656.229z M306,0c-61.512,0-111.375,49.863-111.375,111.375
	S244.488,222.75,306,222.75s111.375-49.863,111.375-111.375S367.51,0,306,0z"/>
</svg>
