<?xml version="1.0" encoding="utf-8"?>
<!-- Generator: Adobe Illustrator 16.0.0, SVG Export Plug-In . SVG Version: 6.00 Build 0)  -->
<!DOCTYPE svg PUBLIC "-//W3C//DTD SVG 1.1//EN" "http://www.w3.org/Graphics/SVG/1.1/DTD/svg11.dtd">
<svg version="1.1" id="Layer_1" focusable="false" xmlns="http://www.w3.org/2000/svg" xmlns:xlink="http://www.w3.org/1999/xlink"
	 x="0px" y="0px" width="612px" height="792px" viewBox="0 0 612 792" enable-background="new 0 0 612 792" xml:space="preserve">
<path fill="#0065FC" d="M593.984,203.277C556.892,187.719,519.77,181.8,482.667,181.8c-117.781-0.009-235.553,59.613-353.334,59.613
	c-29.539,0-59.058-3.749-88.597-13.12c-3.318-1.052-6.646-1.549-9.897-1.549C14.382,226.744,0,239.481,0,257.162v303.38
	c0,12.077,6.914,23.523,18.016,28.171C55.109,604.281,92.23,610.2,129.333,610.2c117.781,0,235.563-59.622,353.344-59.622
	c29.538,0,59.058,3.748,88.597,13.119c3.318,1.052,6.646,1.55,9.897,1.55c16.457,0,30.839-12.737,30.839-30.419v-303.37
	C612,219.371,605.086,207.935,593.984,203.277L593.984,203.277z M45.9,277.635c19.24,4.82,39.321,7.239,59.976,8.54
	c-5.623,28.104-30.332,49.285-59.976,49.285V277.635z M45.9,550.167v-45.69c32.866,0,59.46,26.077,60.923,58.714
	C85.278,561.46,65.14,557.157,45.9,550.167z M306,487.8c-42.257,0-76.5-41.109-76.5-91.8c0-50.7,34.253-91.8,76.5-91.8
	s76.5,41.1,76.5,91.8C382.5,446.71,348.237,487.8,306,487.8z M566.1,514.364c-16.753-4.197-34.147-6.55-51.943-8.07
	c5.613-24.939,26.297-43.873,51.943-47.124V514.364z M566.1,288.584c-29.538-3.739-52.459-28.401-53.368-58.857
	c18.686,2.075,36.424,5.958,53.368,12.106V288.584z"/>
</svg>
